<?xml version="1.0" encoding="utf-8"?>
<!-- Generator: Adobe Illustrator 18.1.1, SVG Export Plug-In . SVG Version: 6.00 Build 0)  -->
<svg version="1.1" xmlns="http://www.w3.org/2000/svg" xmlns:xlink="http://www.w3.org/1999/xlink" x="0px" y="0px"
	 viewBox="0 0 478 478" enable-background="new 0 0 478 478" xml:space="preserve">
<g id="Ebene_1">
	<circle fill="none" stroke="#8CC63F" stroke-width="10" stroke-miterlimit="10" cx="239" cy="239" r="234"/>
	<path display="none" fill="#333333" d="M245.1,240.7c10.9-6.9,39.8-26.1,49.5-42.7c6.3-10.5,5.9-17.4,4.8-20.8
		c-0.5-1.5-2.8-3.2-6.6,0.7c-7.4,7.4-41.2,44-53.1,57c-8.1-9-14.3-17.5-16.1-24c-3.8-13.7-35.6-39.5-36-36.7
		c21.8,21.5,22.9,27.8,21.5,29.2c-1.5,1.5-26.5-23.4-27.8-22.1c-1.3,1.3,23.6,26.3,22.1,27.8c-1.5,1.5-7.8,0.3-29.2-21.5
		c-2.8,0.4,23,32.2,36.7,36c6.6,1.8,15.1,8,24.2,16.2L178,292.7l2.2,5.5c0.4,1,1.2,1.8,2.3,2.1l6,2.3l51.4-58.2
		c25.4,24.3,53.4,60.4,55.7,59.8c3.3-0.9,6-2.5,6-2.5s1.6-2.8,2.5-6C304.7,293.3,269.3,265.9,245.1,240.7z"/>
</g>
<g id="Ebene_11" display="none">
	
		<rect x="44.3" y="158" display="inline" fill="none" stroke="#8CC63F" stroke-width="10" stroke-linejoin="round" stroke-miterlimit="10" width="389.3" height="162"/>
	<path display="inline" fill="#8CC63F" d="M298.2,158H179.8c-24.9,18.3-41.1,47.7-41.1,81s16.2,62.7,41.1,81h118.4
		c24.9-18.3,41.1-47.7,41.1-81S323.1,176.3,298.2,158z M301.6,301.6c0,0-2.8,1.6-6,2.5c-2.3,0.6-30.3-35.5-55.7-59.8l-51.4,58.2
		l-6-2.3c-1.1-0.3-1.9-1.1-2.3-2.1l-2.2-5.5l56.9-53c-9.1-8.2-17.6-14.4-24.2-16.2c-13.7-3.8-39.5-35.6-36.7-36
		c21.5,21.8,27.8,22.9,29.2,21.5c1.5-1.5-23.4-26.5-22.1-27.8c1.3-1.3,26.3,23.6,27.8,22.1c1.5-1.5,0.3-7.8-21.5-29.2
		c0.4-2.8,32.2,23,36,36.7c1.8,6.5,8,15,16.1,24c12-13,45.8-49.6,53.1-57c3.8-3.8,6.1-2.2,6.6-0.7c1.1,3.4,1.5,10.3-4.8,20.8
		c-9.6,16.7-38.5,35.9-49.5,42.7c24.3,25.2,59.7,52.7,59,54.9C303.2,298.8,301.6,301.6,301.6,301.6z"/>
	<g display="inline">
		<path fill="#8CC63F" d="M385.6,271c1.8-5.9,5.1-10.5,10-13.9c4.9-3.4,10.4-5.1,16.8-5.1c1.5,0,3.4,0.2,5.6,0.5l-1.3,5
			c-1.4-0.3-2.8-0.4-4.2-0.4c-4.7,0-8.9,1.2-12.7,3.7s-6.6,5.9-8.4,10.3h22.5l-1.3,4.9h-22.4c-0.2,1.1-0.2,2.2-0.2,3.4
			c0,0.7,0.1,1.6,0.2,2.7h20.8l-1.3,4.8h-18.5c1.6,4.6,4.4,8.2,8.3,10.8c3.9,2.6,8.3,3.9,13.3,3.9c1.5,0,3.2-0.2,4.9-0.6v4.9
			c-1.5,0.3-3.3,0.5-5.3,0.5c-6.6,0-12.3-1.7-17.1-5.1c-4.8-3.4-8-8.2-9.8-14.3h-5.2l1.2-4.8h3.1c-0.1-1.3-0.1-2.4-0.1-3.2
			c0-0.8,0-1.7,0.1-3h-4.3l1.3-4.9H385.6z"/>
	</g>
</g>
<g id="Ebene_12">
	
		<rect x="44.3" y="158" fill="none" stroke="#8CC63F" stroke-width="10" stroke-linejoin="round" stroke-miterlimit="10" width="389.3" height="162"/>
	<path fill="#8CC63F" d="M298.2,158H179.8c-24.9,18.3-41.1,47.7-41.1,81s16.2,62.7,41.1,81h118.4c24.9-18.3,41.1-47.7,41.1-81
		S323.1,176.3,298.2,158z M226,227c6.7-3.8,28.8-1.5,27.9-0.2c-16.6-0.1-19.5,1.9-19.5,3s19.2,1.2,19.2,2.2s-19.2,1.1-19.2,2.2
		s2.9,3.1,19.5,3c0.9,1.2-21.2,3.5-27.9-0.2c-6-3.4-20.4-3.5-33.9-3c0,0.8-0.1,1.7-0.1,2.5c0,2.9,0.2,5.8,0.6,8.5l12.6,0.5
		c0,0,38.8-1.6,45.7-1.6c2.9,0,3.2,1.5,2.8,2.3c-0.9,1.7-3.4,4.6-9.8,6.2c-12.5,3.4-38-3.2-38-3.2l-12.3,0.8
		c2.2,9.1,6.8,17.1,13.8,23.9c10.2,10,23.1,14.9,38.6,14.9c17.1,0,31.4-6.7,42.9-20.1l9.6,7.3c-6.1,7.7-13.7,13.7-22.8,18
		c-9.1,4.2-19.3,6.4-30.5,6.4c-21.4,0-38.2-7.1-50.6-21.3c-7.1-8.2-11.8-17.7-14-28.3l-17.7,1.1l-1.4-3.2c-0.3-0.5-0.3-1.1-0.1-1.7
		l1.3-3l17,0.6c-0.4-3-0.5-6-0.5-9.1c0-0.2,0-0.5,0-0.7c-9.3,0.6-16.4,1.2-16.7,0.6c-0.9-1.6-1.4-3.3-1.4-3.3s0.4-1.7,1.4-3.3
		c0.3-0.6,7.5,0,16.9,0.6c1.3-15.3,7.4-28.3,18.5-39.1c12.5-12.2,28.2-18.3,47.1-18.3c11.4,0,21.7,2.3,30.9,6.8
		c9.2,4.5,16.7,10.8,22.6,19l-9.6,7.4c-5.3-6.9-11.7-12.2-19.1-15.7c-7.4-3.6-15.6-5.4-24.5-5.4c-9.7,0-18.8,2.3-27.1,7
		c-8.3,4.7-14.7,11-19.3,18.8c-3.6,6.2-5.7,12.9-6.5,20.3C205.8,230.5,220,230.3,226,227z"/>
</g>
<g id="Ebene_10" display="none">
	<path display="inline" fill="#8CC63F" d="M239,142c-53.6,0-97,43.4-97,97c0,53.6,43.4,97,97,97s97-43.4,97-97
		C336,185.4,292.6,142,239,142z M301.6,301.6c0,0-2.8,1.6-6,2.5c-2.3,0.6-30.3-35.5-55.7-59.8l-51.4,58.2l-6-2.3
		c-1.1-0.3-1.9-1.1-2.3-2.1l-2.2-5.5l56.9-53c-9.1-8.2-17.6-14.4-24.2-16.2c-13.7-3.8-39.5-35.6-36.7-36
		c21.5,21.8,27.8,22.9,29.2,21.5c1.5-1.5-23.4-26.5-22.1-27.8c1.3-1.3,26.3,23.6,27.8,22.1c1.5-1.5,0.3-7.8-21.5-29.2
		c0.4-2.8,32.2,23,36,36.7c1.8,6.5,8,15,16.1,24c12-13,45.8-49.6,53.1-57c3.8-3.8,6.1-2.2,6.6-0.7c1.1,3.4,1.5,10.3-4.8,20.8
		c-9.6,16.7-38.5,35.9-49.5,42.7c24.3,25.2,59.7,52.7,59,54.9C303.2,298.8,301.6,301.6,301.6,301.6z"/>
	<path display="inline" fill="#8CC63F" d="M401,276v-74h-30.8c-3-11-7.1-20.5-12.4-29.9l21.8-21.8l-52.3-52.3l-21.6,21.8
		c-9.3-5.2-19.7-9.4-29.7-12.4V77h-74v30.4c-11,3-20.7,7.1-30,12.4l-21.8-21.8l-52.4,52.3l21.7,21.8c-5.2,9.3-9.5,18.9-12.4,29.9H77
		v74h30.1c3,10.5,7.1,20.5,12.4,29.9l-21.8,21.8l52.3,52.3l21.9-21.8c9.3,5.2,19,9.4,30,12.4V401h74v-30.4c10-3,20.4-7.1,29.7-12.4
		l21.7,21.8l52.3-52.3l-21.8-21.8c5.2-9.3,9.4-19.3,12.4-29.9H401z M238.7,342.3c-57.1,0-103.3-46.3-103.3-103.3
		c0-57.1,46.3-103.3,103.3-103.3S342,181.9,342,239C342,296.1,295.7,342.3,238.7,342.3z"/>
</g>
<g id="Ebene_9" display="none">
	<path display="inline" fill="#8CC63F" d="M245.9,374.7c10.9-6.9,39.8-26.1,49.5-42.7c6.3-10.5,5.9-17.4,4.8-20.8
		c-0.5-1.5-2.8-3.2-6.6,0.7c-7.4,7.4-41.2,44-53.1,57c-8.1-9-14.3-17.5-16.1-24c-3.8-13.7-35.6-39.5-36-36.7
		c21.8,21.5,22.9,27.8,21.5,29.2c-1.5,1.5-26.5-23.4-27.8-22.1c-1.3,1.3,23.6,26.3,22.1,27.8c-1.5,1.5-7.8,0.3-29.2-21.5
		c-2.8,0.4,23,32.2,36.7,36c6.6,1.8,15.1,8,24.2,16.2l-56.9,53l2.2,5.5c0.4,1,1.2,1.8,2.3,2.1l6,2.3l51.4-58.2
		c25.4,24.3,53.4,60.4,55.7,59.8c3.3-0.9,6-2.5,6-2.5s1.6-2.8,2.5-6C305.6,427.3,270.2,399.9,245.9,374.7z"/>
	<path fill="#8CC63F" d="M403.4,405.5C382.1,302.8,316.6,228,239,228S95.9,302.8,74.6,405.5C116.9,447.2,174.9,473,239,473
		S361.1,447.2,403.4,405.5z"/>
	<g display="inline">
		<path fill="none" stroke="#8CC63F" stroke-width="10" stroke-miterlimit="10" d="M239,5C109.8,5,5,109.8,5,239
			c0,65.2,26.6,124.1,69.6,166.5c16.7-80.6,60.7-144,116.3-167.6c-21.7-15.3-35.9-40.5-35.9-69.1c0-46.7,37.8-84.5,84.5-84.5
			c46.7,0,84.5,37.8,84.5,84.5c0,28.7-14.4,54.1-36.3,69.4c55.3,23.8,99,87,115.7,167.3c43-42.4,69.6-101.4,69.6-166.5
			C473,109.8,368.2,5,239,5z"/>
		<path display="none" fill="#8CC63F" d="M190.9,237.9c13.7,9.7,30.5,15.4,48.6,15.4c17.9,0,34.5-5.6,48.2-15.1
			c-15.4-6.6-31.8-10.2-48.7-10.2C222.3,228,206.2,231.5,190.9,237.9z"/>
		<path display="none" fill="#8CC63F" d="M324,168.8c0-46.7-37.8-84.5-84.5-84.5c-46.7,0-84.5,37.8-84.5,84.5
			c0,28.6,14.2,53.8,35.9,69.1c15.3-6.5,31.4-9.9,48.1-9.9c16.9,0,33.3,3.6,48.7,10.2C309.6,222.9,324,197.6,324,168.8z"/>
	</g>
</g>
<g id="Ebene_8" display="none">
	<g display="inline">
		<polygon fill="none" stroke="#8CC63F" stroke-width="10" stroke-linejoin="round" stroke-miterlimit="10" points="309.1,163.7 
			106.6,163.7 168.9,113.7 371.4,113.7 		"/>
		<polygon fill="none" stroke="#8CC63F" stroke-width="10" stroke-linejoin="round" stroke-miterlimit="10" points="371.4,316.3 
			309.1,364.3 309.1,161.7 371.4,113.7 		"/>
		
			<rect x="106.6" y="161.7" fill="none" stroke="#8CC63F" stroke-width="10" stroke-linejoin="bevel" stroke-miterlimit="10" width="202.6" height="202.6"/>
		<path fill="#8CC63F" d="M107,162v202h202V162H107z M270.5,325.6c0,0-2.8,1.6-6,2.5c-2.3,0.6-30.3-35.5-55.7-59.8l-51.4,58.2
			l-6-2.3c-1.1-0.3-1.9-1.1-2.3-2.1l-2.2-5.5l56.9-53c-9.1-8.2-17.6-14.4-24.2-16.2c-13.7-3.8-39.5-35.6-36.7-36
			c21.5,21.8,27.8,22.9,29.2,21.5c1.5-1.5-23.4-26.5-22.1-27.8c1.3-1.3,26.3,23.6,27.8,22.1c1.5-1.5,0.3-7.8-21.5-29.2
			c0.4-2.8,32.2,23,36,36.7c1.8,6.5,8,15,16.1,24c12-13,45.8-49.6,53.1-57c3.8-3.8,6.1-2.2,6.6-0.7c1.1,3.4,1.5,10.3-4.8,20.8
			c-9.6,16.7-38.5,35.9-49.5,42.7c24.3,25.2,59.7,52.7,59,54.9C272.1,322.8,270.5,325.6,270.5,325.6z"/>
	</g>
</g>
<g id="Ebene_7" display="none">
	<path display="inline" fill="#8CC63F" d="M239,95.7c-79.2,0-143.3,64.2-143.3,143.3S159.8,382.3,239,382.3S382.3,318.2,382.3,239
		S318.2,95.7,239,95.7z M239,336c-53.6,0-97-43.4-97-97c0-53.6,43.4-97,97-97s97,43.4,97,97C336,292.6,292.6,336,239,336z"/>
	<path display="inline" fill="#8CC63F" d="M239,148.8c-49.8,0-90.3,40.4-90.3,90.3s40.4,90.3,90.3,90.3s90.3-40.4,90.3-90.3
		S288.8,148.8,239,148.8z M301.6,301.6c0,0-2.8,1.6-6,2.5c-2.3,0.6-30.3-35.5-55.7-59.8l-51.4,58.2l-6-2.3c-1.1-0.3-1.9-1.1-2.3-2.1
		l-2.2-5.5l56.9-53c-9.1-8.2-17.6-14.4-24.2-16.2c-13.7-3.8-39.5-35.6-36.7-36c21.5,21.8,27.8,22.9,29.2,21.5
		c1.5-1.5-23.4-26.5-22.1-27.8c1.3-1.3,26.3,23.6,27.8,22.1c1.5-1.5,0.3-7.8-21.5-29.2c0.4-2.8,32.2,23,36,36.7
		c1.8,6.5,8,15,16.1,24c12-13,45.8-49.6,53.1-57c3.8-3.8,6.1-2.2,6.6-0.7c1.1,3.4,1.5,10.3-4.8,20.8c-9.6,16.7-38.5,35.9-49.5,42.7
		c24.3,25.2,59.7,52.7,59,54.9C303.2,298.8,301.6,301.6,301.6,301.6z"/>
</g>
<g id="Ebene_6" display="none">
	<g display="inline">
		<path fill="none" stroke="#8CC63F" stroke-width="10" stroke-miterlimit="10" d="M239,259.3c-90.8,0-164.3-22.5-164.3-50.2
			c0,27.7-19.3,196.5,164.3,196.5s164.3-168.8,164.3-196.5C403.3,236.9,329.8,259.3,239,259.3z"/>
		<ellipse fill="none" stroke="#8CC63F" stroke-width="10" stroke-miterlimit="10" cx="239" cy="209.2" rx="164.3" ry="50.2"/>
		<path fill="#8CC63F" d="M403.3,209.2c0,27.7-73.6,50.2-164.3,50.2S74.7,236.9,74.7,209.2c0,27.7-19.3,196.5,164.3,196.5
			S403.3,236.9,403.3,209.2z M301.6,389.6c0,0-2.8,1.6-6,2.5c-2.3,0.6-30.3-35.5-55.7-59.8l-51.4,58.2l-6-2.3
			c-1.1-0.3-1.9-1.1-2.3-2.1l-2.2-5.5l56.9-53c-9.1-8.2-17.6-14.4-24.2-16.2c-13.7-3.8-39.5-35.6-36.7-36
			c21.5,21.8,27.8,22.9,29.2,21.5c1.5-1.5-23.4-26.5-22.1-27.8c1.3-1.3,26.3,23.6,27.8,22.1c1.5-1.5,0.3-7.8-21.5-29.2
			c0.4-2.8,32.2,23,36,36.7c1.8,6.5,8,15,16.1,24c12-13,45.8-49.6,53.1-57c3.8-3.8,6.1-2.2,6.6-0.7c1.1,3.4,1.5,10.3-4.8,20.8
			c-9.6,16.7-38.5,35.9-49.5,42.7c24.3,25.2,59.7,52.7,59,54.9C303.2,386.8,301.6,389.6,301.6,389.6z"/>
	</g>
	<g display="inline">
		<circle fill="#8CC63F" cx="185.4" cy="230.3" r="14.2"/>
		<circle fill="#8CC63F" cx="212.2" cy="183.3" r="14.2"/>
		<circle fill="#8CC63F" cx="239" cy="136.2" r="14.2"/>
		<circle fill="#8CC63F" cx="266.7" cy="183.3" r="14.2"/>
		<circle fill="#8CC63F" cx="292.6" cy="230.3" r="14.2"/>
		<circle fill="#8CC63F" cx="239" cy="230.3" r="14.2"/>
	</g>
</g>
<g id="Ebene_5" display="none">
	<path fill="#8CC63F" d="M326,137v229h-27.5H168.3c-7.4,0-13.3-5.6-13.3-13s6-13,13.3-13H298V137.1V83H164.3
		c-20.9,0-38.3,17.3-38.3,38.3v234.8c0,20.9,17.3,38.9,38.3,38.9H352V137H326z"/>
	<path display="inline" fill="#8CC63F" d="M326,137v229h-27.5H168.3c-7.4,0-13.3-5.6-13.3-13s6-13,13.3-13H298V137.1V83H164.3
		c-20.9,0-38.3,17.3-38.3,38.3v234.8c0,20.9,17.3,38.9,38.3,38.9H352V137H326z M153.1,176.5c21.5,21.8,27.8,22.9,29.2,21.5
		c1.5-1.5-23.4-26.5-22.1-27.8c1.3-1.3,26.3,23.6,27.8,22.1c1.5-1.5,0.3-7.8-21.5-29.2c0.4-2.8,32.2,23,36,36.7
		c1.8,6.5,8,15,16.1,24c12-13,45.8-49.6,53.1-57c3.8-3.8,6.1-2.2,6.6-0.7c1.1,3.4,1.5,10.3-4.8,20.8c-9.6,16.7-38.5,35.9-49.5,42.7
		c24.3,25.2,59.7,52.7,59,54.9c-0.9,3.3-2.5,6-2.5,6s-2.8,1.6-6,2.5c-2.3,0.6-30.3-35.5-55.7-59.8l-51.4,58.2l-6-2.3
		c-1.1-0.3-1.9-1.1-2.3-2.1l-2.2-5.5l56.9-53c-9.1-8.2-17.6-14.4-24.2-16.2C176.1,208.7,150.3,176.9,153.1,176.5z"/>
</g>
<g id="Ebene_4" display="none">
	<path display="inline" fill="none" stroke="#8CC63F" stroke-width="23" stroke-miterlimit="10" d="M84.1,149
		c0,24.3,24.7,39,49.1,39"/>
	<circle display="inline" fill="#8CC63F" cx="169.8" cy="360.2" r="21.2"/>
	<circle display="inline" fill="#8CC63F" cx="259.8" cy="361.2" r="21.2"/>
	<path display="inline" fill="#8CC63F" d="M143,149v180h135.7c40,0,74.7-27.4,84-66.3L389.9,149H143z M301.6,301.6
		c0,0-2.8,1.6-6,2.5c-2.3,0.6-30.3-35.5-55.7-59.8l-51.4,58.2l-6-2.3c-1.1-0.3-1.9-1.1-2.3-2.1l-2.2-5.5l56.9-53
		c-9.1-8.2-17.6-14.4-24.2-16.2c-13.7-3.8-39.5-35.6-36.7-36c21.5,21.8,27.8,22.9,29.2,21.5c1.5-1.5-23.4-26.5-22.1-27.8
		c1.3-1.3,26.3,23.6,27.8,22.1c1.5-1.5,0.3-7.8-21.5-29.2c0.4-2.8,32.2,23,36,36.7c1.8,6.5,8,15,16.1,24c12-13,45.8-49.6,53.1-57
		c3.8-3.8,6.1-2.2,6.6-0.7c1.1,3.4,1.5,10.3-4.8,20.8c-9.6,16.7-38.5,35.9-49.5,42.7c24.3,25.2,59.7,52.7,59,54.9
		C303.2,298.8,301.6,301.6,301.6,301.6z"/>
</g>
<g id="Ebene_3" display="none">
	<g display="inline">
		<path fill="#8CC63F" d="M149,356c0,0,0,26,17.3,26c16.3,0,72.7,0,72.7,0s56.3,0,72.7,0c17.3,0,17.3-26,17.3-26h-90H149z"/>
		<path fill="#8CC63F" d="M365.3,131.7c-12.8-29.2-53.8-30.7-73.8-23.9c0,0-5.9-33.1-52.6-33.1s-52.6,33.1-52.6,33.1
			c-19.9-6.8-60.9-5.3-73.8,23.9c-14.7,33.5,3.6,65.3,36.3,79.2c0,17.6,0,127.1,0,127.1h90h90c0,0,0-109.5,0-127.1
			C361.7,197,380.1,165.1,365.3,131.7z"/>
	</g>
	<path display="inline" fill="#FFFFFF" d="M245.1,240.7c10.9-6.9,39.8-26.1,49.5-42.7c6.3-10.5,5.9-17.4,4.8-20.8
		c-0.5-1.5-2.8-3.2-6.6,0.7c-7.4,7.4-41.2,44-53.1,57c-8.1-9-14.3-17.5-16.1-24c-3.8-13.7-35.6-39.5-36-36.7
		c21.8,21.5,22.9,27.8,21.5,29.2c-1.5,1.5-26.5-23.4-27.8-22.1c-1.3,1.3,23.6,26.3,22.1,27.8c-1.5,1.5-7.8,0.3-29.2-21.5
		c-2.8,0.4,23,32.2,36.7,36c6.6,1.8,15.1,8,24.2,16.2L178,292.7l2.2,5.5c0.4,1,1.2,1.8,2.3,2.1l6,2.3l51.4-58.2
		c25.4,24.3,53.4,60.4,55.7,59.8c3.3-0.9,6-2.5,6-2.5s1.6-2.8,2.5-6C304.7,293.3,269.3,265.9,245.1,240.7z"/>
</g>
<g id="Ebene_2" display="none">
	<circle display="inline" fill="none" stroke="#8CC63F" stroke-width="10" stroke-miterlimit="10" cx="239" cy="385.7" r="45.7"/>
	<g display="inline">
		<path fill="#8CC63F" d="M63.4,189.9h21.2c8.5,0,15.1,1,19.7,3c4.6,2,8.2,5.1,10.9,9.3c2.7,4.2,4,8.9,4,14c0,4.8-1.2,9.1-3.5,13.1
			c-2.3,3.9-5.8,7.1-10.3,9.6c5.6,1.9,9.9,4.1,12.9,6.7c3,2.6,5.4,5.7,7,9.3c1.7,3.6,2.5,7.6,2.5,11.8c0,8.6-3.2,16-9.5,21.9
			c-6.3,6-14.8,9-25.5,9H63.4V189.9z M74,200.5V235h6.2c7.5,0,13-0.7,16.5-2.1c3.5-1.4,6.3-3.6,8.4-6.6s3.1-6.3,3.1-10
			c0-4.9-1.7-8.8-5.2-11.6c-3.4-2.8-8.9-4.2-16.5-4.2H74z M74,245.8v41.3h13.4c7.9,0,13.6-0.8,17.3-2.3c3.7-1.5,6.6-3.9,8.8-7.2
			c2.2-3.3,3.3-6.8,3.3-10.6c0-4.8-1.6-9-4.7-12.5c-3.1-3.6-7.4-6-12.9-7.3c-3.7-0.9-10.1-1.3-19.2-1.3H74z"/>
	</g>
	<g display="inline">
		<path fill="#8CC63F" d="M214.4,33.3h54v10.5h-43.2v33.8h43.2v10.5h-43.2V141h-10.8V33.3z"/>
	</g>
	<g display="inline">
		<path fill="#8CC63F" d="M434.1,207.9l-8.5,6.5c-4.7-6.1-10.3-10.7-16.9-13.9c-6.6-3.1-13.8-4.7-21.6-4.7c-8.6,0-16.6,2.1-23.9,6.2
			c-7.3,4.1-13,9.7-17,16.6s-6,14.8-6,23.5c0,13.1,4.5,24.1,13.5,32.9s20.4,13.2,34.1,13.2c15.1,0,27.7-5.9,37.9-17.7l8.5,6.4
			c-5.4,6.8-12.1,12.1-20.1,15.9c-8,3.7-17,5.6-26.9,5.6c-18.8,0-33.7-6.3-44.6-18.8c-9.1-10.6-13.7-23.4-13.7-38.4
			c0-15.8,5.5-29,16.6-39.8s24.9-16.1,41.6-16.1c10.1,0,19.1,2,27.2,6C422.3,195.2,428.9,200.7,434.1,207.9z"/>
	</g>
	<path display="inline" fill="#8CC63F" d="M102.5,70.3c55.6,54.8,58.6,70.9,54.9,74.6c-3.7,3.7-67.7-59.9-71-56.6
		c-3.3,3.3,60.3,67.3,56.6,71c-3.7,3.7-19.8,0.8-74.6-54.9c-7.1,1.1,58.8,82.3,93.7,92c65.7,18.4,208.3,208.3,216.7,206
		c8.4-2.3,15.4-6.4,15.4-6.4s4.1-7,6.4-15.4s-187.6-151-206-216.7C184.7,129.1,103.6,63.2,102.5,70.3z"/>
	<path display="inline" fill="#8CC63F" d="M375.2,83.6c-23,23-146.6,157.2-146.6,157.2L82.2,377.1l5.6,14.1c0.9,2.6,3,4.6,5.8,5.4
		l15.4,5.8l133.7-151.5c0,0,106.7-62.9,137.2-115.8c16.1-26.8,15.1-44.5,12.2-53.2C390.8,78,385,73.8,375.2,83.6z"/>
</g>
</svg>
