<?xml version="1.0" encoding="utf-8"?>
<!-- Generator: Adobe Illustrator 18.1.1, SVG Export Plug-In . SVG Version: 6.00 Build 0)  -->
<svg version="1.1" id="Ebene_1" xmlns="http://www.w3.org/2000/svg" xmlns:xlink="http://www.w3.org/1999/xlink" x="0px" y="0px"
	 viewBox="0 0 478 478" enable-background="new 0 0 478 478" xml:space="preserve">
<circle fill="none" stroke="#333333" stroke-width="10" stroke-miterlimit="10" cx="239" cy="239" r="234"/>
<circle display="none" fill="none" stroke="#333333" stroke-width="10" stroke-miterlimit="10" cx="239" cy="385.7" r="45.7"/>
<g display="none">
	<path display="inline" fill="#333333" d="M63.4,189.9h21.2c8.5,0,15.1,1,19.7,3c4.6,2,8.2,5.1,10.9,9.3c2.7,4.2,4,8.9,4,14
		c0,4.8-1.2,9.1-3.5,13.1c-2.3,3.9-5.8,7.1-10.3,9.6c5.6,1.9,9.9,4.1,12.9,6.7c3,2.6,5.4,5.7,7,9.3c1.7,3.6,2.5,7.6,2.5,11.8
		c0,8.6-3.2,16-9.5,21.9c-6.3,6-14.8,9-25.5,9H63.4V189.9z M74,200.5V235h6.2c7.5,0,13-0.7,16.5-2.1c3.5-1.4,6.3-3.6,8.4-6.6
		s3.1-6.3,3.1-10c0-4.9-1.7-8.8-5.2-11.6c-3.4-2.8-8.9-4.2-16.5-4.2H74z M74,245.8v41.3h13.4c7.9,0,13.6-0.8,17.3-2.3
		c3.7-1.5,6.6-3.9,8.8-7.2c2.2-3.3,3.3-6.8,3.3-10.6c0-4.8-1.6-9-4.7-12.5c-3.1-3.6-7.4-6-12.9-7.3c-3.7-0.9-10.1-1.3-19.2-1.3H74z"
		/>
</g>
<g display="none">
	<path display="inline" fill="#333333" d="M214.4,33.3h54v10.5h-43.2v33.8h43.2v10.5h-43.2V141h-10.8V33.3z"/>
</g>
<g display="none">
	<path display="inline" fill="#333333" d="M434.1,207.9l-8.5,6.5c-4.7-6.1-10.3-10.7-16.9-13.9c-6.6-3.1-13.8-4.7-21.6-4.7
		c-8.6,0-16.6,2.1-23.9,6.2c-7.3,4.1-13,9.7-17,16.6s-6,14.8-6,23.5c0,13.1,4.5,24.1,13.5,32.9s20.4,13.2,34.1,13.2
		c15.1,0,27.7-5.9,37.9-17.7l8.5,6.4c-5.4,6.8-12.1,12.1-20.1,15.9c-8,3.7-17,5.6-26.9,5.6c-18.8,0-33.7-6.3-44.6-18.8
		c-9.1-10.6-13.7-23.4-13.7-38.4c0-15.8,5.5-29,16.6-39.8s24.9-16.1,41.6-16.1c10.1,0,19.1,2,27.2,6
		C422.3,195.2,428.9,200.7,434.1,207.9z"/>
</g>
<polygon fill="#8CC63F" points="239,70.9 96.1,182 381.9,182 239,70.9 96.1,182 381.9,182 "/>
<path fill="#8CC63F" d="M105,196v184h268V196H105z M307.6,348.6c0,0-3,1.7-6.6,2.7c-2.5,0.7-32.5-38-60-64.5l-56.9,64.4l-6.6-2.5
	c-1.2-0.3-2.1-1.2-2.5-2.3l-2.4-6l62.6-58.2c0,0,0.1-0.1,0.4-0.4c-10.3-9.3-19.9-16.4-27.2-18.5c-14.9-4.2-43.1-38.8-40-39.3
	c23.4,23.8,30.3,25,31.9,23.4c1.6-1.6-25.6-28.9-24.2-30.3c1.4-1.4,28.7,25.7,30.3,24.2c1.6-1.6,0.3-8.5-23.4-31.9
	c0.5-3,35.1,25.1,39.3,40c2,7.3,9.1,16.8,18.3,27c13.7-14.8,49.3-53.5,57.2-61.3c4.2-4.2,6.7-2.4,7.2-0.7c1.2,3.7,1.7,11.3-5.2,22.7
	c-10.2,17.7-40.4,38-53,46c26.4,27.2,64.1,56.4,63.4,58.9C309.3,345.6,307.6,348.6,307.6,348.6z"/>
<g>
</g>
<g>
</g>
<g>
</g>
<g>
</g>
<g>
</g>
<g>
</g>
<g>
</g>
<g>
</g>
<g>
</g>
<g>
</g>
<g>
</g>
<g>
</g>
<g>
</g>
<g>
</g>
<g>
</g>
</svg>
