<?xml version="1.0" encoding="utf-8"?>
<!-- Generator: Adobe Illustrator 18.1.1, SVG Export Plug-In . SVG Version: 6.00 Build 0)  -->
<svg version="1.1" id="Ebene_1" xmlns="http://www.w3.org/2000/svg" xmlns:xlink="http://www.w3.org/1999/xlink" x="0px" y="0px"
	 viewBox="0 0 478 478" enable-background="new 0 0 478 478" xml:space="preserve">
<circle fill="none" stroke="#8CC63F" stroke-width="10" stroke-miterlimit="10" cx="239" cy="239" r="234"/>
<circle display="none" fill="none" stroke="#8CC63F" stroke-width="10" stroke-miterlimit="10" cx="239" cy="385.7" r="45.7"/>
<g display="none">
	<path display="inline" fill="#8CC63F" d="M63.4,189.9h21.2c8.5,0,15.1,1,19.7,3c4.6,2,8.2,5.1,10.9,9.3c2.7,4.2,4,8.9,4,14
		c0,4.8-1.2,9.1-3.5,13.1c-2.3,3.9-5.8,7.1-10.3,9.6c5.6,1.9,9.9,4.1,12.9,6.7c3,2.6,5.4,5.7,7,9.3c1.7,3.6,2.5,7.6,2.5,11.8
		c0,8.6-3.2,16-9.5,21.9c-6.3,6-14.8,9-25.5,9H63.4V189.9z M74,200.5V235h6.2c7.5,0,13-0.7,16.5-2.1c3.5-1.4,6.3-3.6,8.4-6.6
		s3.1-6.3,3.1-10c0-4.9-1.7-8.8-5.2-11.6c-3.4-2.8-8.9-4.2-16.5-4.2H74z M74,245.8v41.3h13.4c7.9,0,13.6-0.8,17.3-2.3
		c3.7-1.5,6.6-3.9,8.8-7.2c2.2-3.3,3.3-6.8,3.3-10.6c0-4.8-1.6-9-4.7-12.5c-3.1-3.6-7.4-6-12.9-7.3c-3.7-0.9-10.1-1.3-19.2-1.3H74z"
		/>
</g>
<g display="none">
	<path display="inline" fill="#8CC63F" d="M214.4,33.3h54v10.5h-43.2v33.8h43.2v10.5h-43.2V141h-10.8V33.3z"/>
</g>
<g display="none">
	<path display="inline" fill="#8CC63F" d="M434.1,207.9l-8.5,6.5c-4.7-6.1-10.3-10.7-16.9-13.9c-6.6-3.1-13.8-4.7-21.6-4.7
		c-8.6,0-16.6,2.1-23.9,6.2c-7.3,4.1-13,9.7-17,16.6s-6,14.8-6,23.5c0,13.1,4.5,24.1,13.5,32.9s20.4,13.2,34.1,13.2
		c15.1,0,27.7-5.9,37.9-17.7l8.5,6.4c-5.4,6.8-12.1,12.1-20.1,15.9c-8,3.7-17,5.6-26.9,5.6c-18.8,0-33.7-6.3-44.6-18.8
		c-9.1-10.6-13.7-23.4-13.7-38.4c0-15.8,5.5-29,16.6-39.8s24.9-16.1,41.6-16.1c10.1,0,19.1,2,27.2,6
		C422.3,195.2,428.9,200.7,434.1,207.9z"/>
</g>
<g>
	<path fill="#8CC63F" d="M149,356c0,0,0,26,17.3,26c16.3,0,72.7,0,72.7,0s56.3,0,72.7,0c17.3,0,17.3-26,17.3-26h-90H149z"/>
	<path fill="#8CC63F" d="M365.3,131.7c-12.8-29.2-53.8-30.7-73.8-23.9c0,0-5.9-33.1-52.6-33.1s-52.6,33.1-52.6,33.1
		c-19.9-6.8-60.9-5.3-73.8,23.9c-14.7,33.5,3.6,65.3,36.3,79.2c0,17.6,0,127.1,0,127.1h90h90c0,0,0-109.5,0-127.1
		C361.7,197,380.1,165.1,365.3,131.7z M301.6,301.6c0,0-2.8,1.6-6,2.5c-2.3,0.6-30.3-35.5-55.7-59.8l-51.4,58.2l-6-2.3
		c-1.1-0.3-1.9-1.1-2.3-2.1l-2.2-5.5l56.9-53c-9.1-8.2-17.6-14.4-24.2-16.2c-13.7-3.8-39.5-35.6-36.7-36
		c21.5,21.8,27.8,22.9,29.2,21.5c1.5-1.5-23.4-26.5-22.1-27.8c1.3-1.3,26.3,23.6,27.8,22.1c1.5-1.5,0.3-7.8-21.5-29.2
		c0.4-2.8,32.2,23,36,36.7c1.8,6.5,8,15,16.1,24c12-13,45.8-49.6,53.1-57c3.8-3.8,6.1-2.2,6.6-0.7c1.1,3.4,1.5,10.3-4.8,20.8
		c-9.6,16.7-38.5,35.9-49.5,42.7c24.3,25.2,59.7,52.7,59,54.9C303.2,298.8,301.6,301.6,301.6,301.6z"/>
</g>
<g>
</g>
<g>
</g>
<g>
</g>
<g>
</g>
<g>
</g>
<g>
</g>
<g>
</g>
<g>
</g>
<g>
</g>
<g>
</g>
<g>
</g>
<g>
</g>
<g>
</g>
<g>
</g>
<g>
</g>
</svg>
