<?xml version="1.0" encoding="utf-8"?>
<!-- Generator: Adobe Illustrator 18.1.1, SVG Export Plug-In . SVG Version: 6.00 Build 0)  -->
<svg version="1.1" id="Ebene_1" xmlns="http://www.w3.org/2000/svg" xmlns:xlink="http://www.w3.org/1999/xlink" x="0px" y="0px"
	 viewBox="0 0 478 478" enable-background="new 0 0 478 478" xml:space="preserve">
<circle fill="none" stroke="#333333" stroke-width="10" stroke-miterlimit="10" cx="239" cy="239" r="234"/>
<circle fill="none" stroke="#4D4D4D" stroke-width="10" stroke-miterlimit="10" cx="239" cy="385.7" r="45.7"/>
<path fill="#333333" d="M102.5,70.3c55.6,54.8,58.6,70.9,54.9,74.6c-3.7,3.7-67.7-59.9-71-56.6c-3.3,3.3,60.3,67.3,56.6,71
	c-3.7,3.7-19.8,0.8-74.6-54.9c-7.1,1.1,58.8,82.3,93.7,92c65.7,18.4,208.3,208.3,216.7,206c8.4-2.3,15.4-6.4,15.4-6.4
	s4.1-7,6.4-15.4s-187.6-151-206-216.7C184.7,129.1,103.6,63.2,102.5,70.3z"/>
<path fill="#333333" d="M375.2,83.6c-23,23-146.6,157.2-146.6,157.2L82.2,377.1l5.6,14.1c0.9,2.6,3,4.6,5.8,5.4l15.4,5.8
	l133.7-151.5c0,0,106.7-62.9,137.2-115.8c16.1-26.8,15.1-44.5,12.2-53.2C390.8,78,385,73.8,375.2,83.6z"/>
<g>
	<path fill="#333333" d="M63.4,189.9h21.2c8.5,0,15.1,1,19.7,3c4.6,2,8.2,5.1,10.9,9.3c2.7,4.2,4,8.9,4,14c0,4.8-1.2,9.1-3.5,13.1
		c-2.3,3.9-5.8,7.1-10.3,9.6c5.6,1.9,9.9,4.1,12.9,6.7c3,2.6,5.4,5.7,7,9.3c1.7,3.6,2.5,7.6,2.5,11.8c0,8.6-3.2,16-9.5,21.9
		c-6.3,6-14.8,9-25.5,9H63.4V189.9z M74,200.5V235h6.2c7.5,0,13-0.7,16.5-2.1c3.5-1.4,6.3-3.6,8.4-6.6s3.1-6.3,3.1-10
		c0-4.9-1.7-8.8-5.2-11.6c-3.4-2.8-8.9-4.2-16.5-4.2H74z M74,245.8v41.3h13.4c7.9,0,13.6-0.8,17.3-2.3c3.7-1.5,6.6-3.9,8.8-7.2
		c2.2-3.3,3.3-6.8,3.3-10.6c0-4.8-1.6-9-4.7-12.5c-3.1-3.6-7.4-6-12.9-7.3c-3.7-0.9-10.1-1.3-19.2-1.3H74z"/>
</g>
<g>
	<path fill="#333333" d="M214.4,33.3h54v10.5h-43.2v33.8h43.2v10.5h-43.2V141h-10.8V33.3z"/>
</g>
<g>
	<path fill="#333333" d="M434.1,207.9l-8.5,6.5c-4.7-6.1-10.3-10.7-16.9-13.9c-6.6-3.1-13.8-4.7-21.6-4.7c-8.6,0-16.6,2.1-23.9,6.2
		c-7.3,4.1-13,9.7-17,16.6s-6,14.8-6,23.5c0,13.1,4.5,24.1,13.5,32.9s20.4,13.2,34.1,13.2c15.1,0,27.7-5.9,37.9-17.7l8.5,6.4
		c-5.4,6.8-12.1,12.1-20.1,15.9c-8,3.7-17,5.6-26.9,5.6c-18.8,0-33.7-6.3-44.6-18.8c-9.1-10.6-13.7-23.4-13.7-38.4
		c0-15.8,5.5-29,16.6-39.8s24.9-16.1,41.6-16.1c10.1,0,19.1,2,27.2,6C422.3,195.2,428.9,200.7,434.1,207.9z"/>
</g>
<g>
</g>
<g>
</g>
<g>
</g>
<g>
</g>
<g>
</g>
<g>
</g>
<g>
</g>
<g>
</g>
<g>
</g>
<g>
</g>
<g>
</g>
<g>
</g>
<g>
</g>
<g>
</g>
<g>
</g>
</svg>
